<svg width="450" height="40" viewBox="0 0 450 40" fill="none" xmlns="http://www.w3.org/2000/svg">
<path d="M9.072 25.776V23.058L3.384 21.564L9.072 20.034V17.298L0.684 20.124V22.986L9.072 25.776ZM54.3601 27V22.104H50.2381V23.832H41.7601C41.7601 23.454 42.1201 22.734 45.2881 22.158L48.9601 21.546C53.3521 20.826 54.1261 19.548 54.1261 17.532V17.496C54.1261 15.372 52.8481 13.374 46.5481 13.374H45.8281C38.8981 13.374 38.2501 16.668 38.2501 18.198V18.342H42.6241C42.6781 17.676 42.9661 16.452 46.3321 16.452C49.2841 16.452 49.6981 16.938 49.6981 17.46C49.6981 17.874 49.5361 18.234 47.7181 18.576L44.5861 19.224C38.3761 20.52 38.0161 23.508 38.0161 25.488V27H54.3601Z" fill="white"/>
<path d="M387.415 18.702V27H391.573V13.608H388.297C387.685 15.012 386.605 16.038 384.301 16.182V18.702H387.415ZM412.028 19.998C412.028 17.622 410.93 13.374 402.992 13.374H402.2C394.28 13.374 393.164 17.622 393.164 19.998V20.538C393.164 22.896 394.28 27.234 402.2 27.234H402.992C410.948 27.234 412.028 22.878 412.028 20.538V19.998ZM407.636 20.376C407.636 21.906 406.682 23.958 402.596 23.958C398.51 23.958 397.556 21.852 397.556 20.34V20.124C397.556 18.612 398.42 16.632 402.596 16.632C406.7 16.632 407.636 18.612 407.636 20.124V20.376ZM440.929 25.776L449.317 22.986V20.124L440.929 17.298V20.034L446.617 21.564L440.929 23.058V25.776Z" fill="white"/>
<rect x="112" y="19" width="226" height="2" fill="white"/>
<rect x="112" y="19" width="140" height="2" fill="#A75B12"/>
</svg>
